<svg width="137" height="40" viewBox="0 0 137 40" fill="none" xmlns="http://www.w3.org/2000/svg">
<g clip-path="url(#clip0_2_220)">
<path d="M38.0439 11.6778H44.3957C48.4452 11.6778 51.7903 14.0208 51.7903 19.3704V20.4945C51.7903 25.8847 48.6619 28.3089 44.5176 28.3089H38.0439V11.6778ZM41.5923 14.698V25.2752H44.3145C46.6168 25.2752 48.1608 23.7719 48.1608 20.4268V19.5465C48.1608 16.2013 46.5356 14.698 44.1926 14.698H41.5923ZM53.6729 14.8605H56.5169L56.9774 17.989C57.5191 15.8627 58.9006 14.7251 61.4061 14.7251H62.2864V18.314H60.8237C57.939 18.314 57.2347 19.3162 57.2347 22.1603V28.3496H53.727V14.8605H53.6729ZM62.9906 21.8759V21.4967C62.9906 16.9868 65.8753 14.5219 69.8029 14.5219C73.8117 14.5219 76.6151 16.9868 76.6151 21.4967V21.8759C76.6151 26.3045 73.8929 28.6882 69.8029 28.6882C65.4555 28.6475 62.9906 26.3181 62.9906 21.8759ZM73.0262 21.8353V21.4967C73.0262 18.9912 71.7666 17.4879 69.7622 17.4879C67.7985 17.4879 66.4983 18.8693 66.4983 21.4967V21.8353C66.4983 24.2595 67.7578 25.6409 69.7622 25.6409C71.7666 25.6003 73.0262 24.2595 73.0262 21.8353ZM78.457 14.8605H81.3824L81.7209 17.4066C82.4252 15.7002 83.9285 14.5219 86.1496 14.5219C89.576 14.5219 91.8378 16.9868 91.8378 21.5509V21.9301C91.8378 26.3587 89.3323 28.7017 86.1496 28.7017C84.0233 28.7017 82.5606 27.7401 81.8428 26.1962V33.0084H78.4164L78.457 14.8605ZM88.2759 21.8353V21.5373C88.2759 18.8557 86.8945 17.5285 85.0526 17.5285C83.0888 17.5285 81.7887 19.0318 81.7887 21.5373V21.7946C81.7887 24.1782 83.0482 25.6815 85.0119 25.6815C87.0299 25.6409 88.2759 24.3543 88.2759 21.8353ZM97.0248 25.8576L96.7269 28.3225H93.7203V10.3506H97.1467V17.2441C97.9051 15.4835 99.4084 14.5219 101.535 14.5219C104.758 14.5625 107.142 16.7836 107.142 21.2529V21.6727C107.142 26.142 104.88 28.7017 101.453 28.7017C99.1917 28.6475 97.7291 27.6047 97.0248 25.8576ZM103.539 21.6727V21.3342C103.539 18.8693 102.198 17.4879 100.316 17.4879C98.3927 17.4879 97.0519 19.0318 97.0519 21.3748V21.6727C97.0519 24.1782 98.3521 25.6409 100.275 25.6409C102.334 25.6409 103.539 24.3543 103.539 21.6727ZM108.645 21.8759V21.4967C108.645 16.9868 111.53 14.5219 115.457 14.5219C119.466 14.5219 122.269 16.9868 122.269 21.4967V21.8759C122.269 26.3045 119.507 28.6882 115.457 28.6882C111.11 28.6475 108.645 26.3181 108.645 21.8759ZM118.708 21.8353V21.4967C118.708 18.9912 117.448 17.4879 115.444 17.4879C113.48 17.4879 112.18 18.8693 112.18 21.4967V21.8353C112.18 24.2595 113.439 25.6409 115.444 25.6409C117.462 25.6003 118.708 24.2595 118.708 21.8353ZM126.861 21.3342L122.134 14.8605H126.183L128.906 18.9099L131.668 14.8605H135.677L130.883 21.2935L135.935 28.3225H131.966L128.879 23.8532L125.872 28.3225H121.728L126.861 21.3342Z" fill="#18181B"/>
<path d="M16.2112 11.678L8.35606 16.689L16.2112 21.7L8.35606 26.711L0.500977 21.6729L8.35606 16.6619L0.500977 11.678L8.35606 6.66699L16.2112 11.678ZM8.31543 28.3227L16.1705 23.3117L24.0256 28.3227L16.1705 33.3337L8.31543 28.3227ZM16.2112 21.6729L24.0662 16.6619L16.2112 11.678L24.0256 6.66699L31.8807 11.678L24.0256 16.689L31.8807 21.7L24.0256 26.711L16.2112 21.6729Z" fill="#18181B"/>
</g>
<defs>
<clipPath id="clip0_2_220">
<rect width="135.833" height="40" fill="white" transform="translate(0.5)"/>
</clipPath>
</defs>
</svg>
