<svg width="117" height="40" viewBox="0 0 117 40" fill="none" xmlns="http://www.w3.org/2000/svg">
<g clip-path="url(#clip0_2_212)">
<path d="M17.5618 2.56641C7.89689 2.56641 0.0615234 10.4016 0.0615234 20.0665C0.0615234 29.7319 7.89689 37.5664 17.5618 37.5664C27.2278 37.5664 35.0624 29.7319 35.0624 20.0665C35.0624 10.4022 27.2278 2.56724 17.5616 2.56724L17.5618 2.56641ZM25.5874 27.8066C25.2739 28.3207 24.601 28.4837 24.0869 28.1681C19.978 25.6583 14.8054 25.0899 8.71378 26.4817C8.12676 26.6154 7.54163 26.2476 7.40789 25.6604C7.27351 25.0732 7.63985 24.488 8.22833 24.3543C14.8947 22.8313 20.6129 23.487 25.2258 26.3061C25.7399 26.6217 25.9029 27.2925 25.5874 27.8066ZM27.7294 23.0415C27.3344 23.6835 26.4943 23.8862 25.8528 23.4912C21.1487 20.5998 13.9781 19.7624 8.41411 21.4514C7.69251 21.6694 6.93037 21.2627 6.71137 20.5423C6.49403 19.8208 6.90091 19.0601 7.62125 18.8407C13.9769 16.9122 21.878 17.8463 27.2801 21.1659C27.9216 21.5609 28.1244 22.4008 27.7294 23.0415ZM27.9133 18.0796C22.273 14.7295 12.9673 14.4214 7.58217 16.0558C6.71743 16.3181 5.80294 15.8299 5.54089 14.9652C5.27883 14.1 5.76658 13.1862 6.63195 12.9233C12.8137 11.0467 23.0901 11.4092 29.5838 15.2642C30.3633 15.7259 30.6183 16.7304 30.1564 17.5072C29.6967 18.285 28.6886 18.5414 27.9133 18.0796ZM47.6741 18.7215C44.6523 18.001 44.1152 17.4953 44.1152 16.4326C44.1152 15.4287 45.0598 14.7531 46.4662 14.7531C47.8287 14.7531 49.1787 15.2661 50.5956 16.3223C50.6374 16.3543 50.6917 16.367 50.744 16.3586C50.7983 16.3507 50.8443 16.3217 50.8756 16.278L52.351 14.1982C52.4116 14.1126 52.3949 13.9945 52.3134 13.9291C50.6269 12.5764 48.7294 11.9187 46.5101 11.9187C43.248 11.9187 40.968 13.8766 40.968 16.678C40.968 19.682 42.9345 20.7457 46.3325 21.5667C49.2226 22.2328 49.7116 22.7907 49.7116 23.788C49.7116 24.8934 48.7253 25.581 47.137 25.581C45.3733 25.581 43.9334 24.9854 42.3243 23.5936C42.2846 23.5581 42.2303 23.5435 42.1801 23.5455C42.1258 23.5497 42.0777 23.5748 42.0443 23.6145L40.3892 25.5831C40.3202 25.6667 40.3286 25.7879 40.408 25.8589C42.2804 27.5307 44.5833 28.4126 47.0702 28.4126C50.5851 28.4126 52.8567 26.4921 52.8567 23.5184C52.863 21.0092 51.3605 19.6195 47.6804 18.7243L47.6741 18.7215ZM60.8104 15.7415C59.2869 15.7415 58.0373 16.3417 57.0049 17.5715V16.1873C57.0049 16.078 56.9171 15.989 56.8085 15.989H54.1022C53.9936 15.989 53.9058 16.078 53.9058 16.1873V31.5682C53.9058 31.6768 53.9936 31.7667 54.1022 31.7667H56.8085C56.9171 31.7667 57.0049 31.6768 57.0049 31.5682V26.7136C58.0373 27.8693 59.2869 28.4356 60.8104 28.4356C63.642 28.4356 66.5092 26.256 66.5092 22.0892C66.5133 17.9216 63.6462 15.7413 60.8125 15.7413L60.8104 15.7415ZM63.362 22.0892C63.362 24.2101 62.0559 25.6917 60.1834 25.6917C58.334 25.6917 56.938 24.1432 56.938 22.0892C56.938 20.035 58.334 18.4869 60.1834 18.4869C62.0245 18.4866 63.362 20.0015 63.362 22.0892ZM73.8547 15.7415C70.2081 15.7415 67.3513 18.5493 67.3513 22.1345C67.3513 25.6813 70.1892 28.4586 73.8108 28.4586C77.47 28.4586 80.3351 25.6604 80.3351 22.0892C80.3351 18.5301 77.4888 15.7415 73.8547 15.7415ZM73.8547 25.7126C71.9154 25.7126 70.4526 24.1537 70.4526 22.0881C70.4526 20.0132 71.8652 18.5075 73.8108 18.5075C75.7626 18.5075 77.2338 20.0659 77.2338 22.1335C77.2338 24.208 75.8128 25.7126 73.8547 25.7126ZM88.1215 15.989H85.1436V12.945C85.1436 12.8359 85.0558 12.7469 84.9472 12.7469H82.2409C82.1322 12.7469 82.0424 12.8359 82.0424 12.945V15.989H80.7426C80.6339 15.989 80.5461 16.078 80.5461 16.1873V18.5126C80.5461 18.6216 80.6339 18.7109 80.7426 18.7109H82.0424V24.7284C82.0424 27.1588 83.2524 28.3917 85.641 28.3917C86.6106 28.3917 87.4152 28.1911 88.1738 27.7606C88.2365 27.7272 88.2741 27.6603 88.2741 27.5892V25.3741C88.2741 25.3072 88.2385 25.2424 88.18 25.2069C88.1215 25.1693 88.0484 25.1672 87.9878 25.1986C87.4674 25.4598 86.9638 25.581 86.3996 25.581C85.5323 25.581 85.1436 25.186 85.1436 24.3041V18.7119H88.1215C88.2302 18.7119 88.3179 18.6229 88.3179 18.5136V16.1885C88.3221 16.0792 88.2344 15.9902 88.1236 15.9902L88.1215 15.989ZM98.4951 16.0009V15.627C98.4951 14.5272 98.9172 14.0367 99.8618 14.0367C100.426 14.0367 100.88 14.1487 101.387 14.318C101.45 14.3376 101.515 14.3278 101.565 14.2904C101.617 14.253 101.646 14.193 101.646 14.1295V11.8496C101.646 11.7624 101.592 11.6853 101.506 11.6596C100.971 11.5001 100.286 11.3365 99.2579 11.3365C96.7606 11.3365 95.4378 12.7438 95.4378 15.4047V15.9773H94.1379C94.0293 15.9773 93.9394 16.0663 93.9394 16.1754V18.5126C93.9394 18.6216 94.0293 18.7109 94.1379 18.7109H95.4378V27.9905C95.4378 28.1012 95.5276 28.189 95.6363 28.189H98.3405C98.4512 28.189 98.539 28.1012 98.539 27.9905V18.7115H101.066L104.936 27.9905C104.497 28.9643 104.064 29.1587 103.475 29.1587C102.999 29.1587 102.495 29.0166 101.983 28.7344C101.935 28.7094 101.876 28.7052 101.826 28.7198C101.774 28.7386 101.73 28.7762 101.709 28.8264L100.792 30.8388C100.748 30.935 100.785 31.0457 100.877 31.0959C101.835 31.6141 102.698 31.8356 103.765 31.8356C105.763 31.8356 106.869 30.9036 107.841 28.4001L112.534 16.2717C112.559 16.2107 112.551 16.1417 112.513 16.0876C112.478 16.0339 112.417 16.0015 112.352 16.0015H109.535C109.45 16.0015 109.374 16.0552 109.347 16.1344L106.461 24.3752L103.302 16.129C103.272 16.0523 103.199 16.0015 103.118 16.0015L98.4951 16.0009ZM92.4808 15.989H89.7745C89.6658 15.989 89.576 16.078 89.576 16.1873V27.9905C89.576 28.1012 89.6658 28.189 89.7745 28.189H92.4808C92.5894 28.189 92.6793 28.1012 92.6793 27.9905V16.1881C92.6793 16.0788 92.5915 15.9898 92.4808 15.9898V15.989ZM91.1433 10.6143C90.0713 10.6143 89.2019 11.482 89.2019 12.5538C89.2019 13.6263 90.0713 14.495 91.1433 14.495C92.2154 14.495 93.0826 13.6263 93.0826 12.5538C93.0826 11.4822 92.2133 10.6143 91.1433 10.6143ZM114.845 19.7842C113.775 19.7842 112.942 18.9242 112.942 17.88C112.942 16.8357 113.786 15.966 114.856 15.966C115.926 15.966 116.76 16.8257 116.76 17.8691C116.76 18.9134 115.915 19.7842 114.845 19.7842ZM114.856 16.1553C113.88 16.1553 113.142 16.9306 113.142 17.88C113.142 18.829 113.876 19.5938 114.845 19.5938C115.821 19.5938 116.559 18.8191 116.559 17.8691C116.559 16.9202 115.826 16.1553 114.856 16.1553ZM115.278 18.0649L115.817 18.8189H115.362L114.877 18.1272H114.461V18.8189H114.081V16.8203H114.971C115.437 16.8203 115.742 17.0579 115.742 17.4579C115.744 17.7855 115.554 17.9857 115.28 18.0649H115.278ZM114.956 17.1632H114.461V17.7954H114.956C115.203 17.7954 115.351 17.6744 115.351 17.479C115.351 17.2733 115.203 17.1632 114.956 17.1632Z" fill="#18181B"/>
</g>
<defs>
<clipPath id="clip0_2_212">
<rect width="116.667" height="40" fill="white"/>
</clipPath>
</defs>
</svg>
