<svg width="141" height="40" viewBox="0 0 141 40" fill="none" xmlns="http://www.w3.org/2000/svg">
<g clip-path="url(#clip0_2_223)">
<path fill-rule="evenodd" clip-rule="evenodd" d="M37.5375 8.42188L25.6657 31.6298H14.5148L19.4831 22.0114H19.2603C15.1614 27.3322 9.04594 30.8349 0.332275 31.6298V22.1446C0.332275 22.1446 5.90661 21.8153 9.1836 18.37H0.332275V8.42206H10.2802V16.6041L10.5035 16.6032L14.5686 8.42206H22.092V16.5522L22.3152 16.5519L26.5328 8.42188H37.5375Z" fill="#18181B"/>
<path d="M102.275 29.0676H105.479V10.6777H102.275V29.0676ZM84.6132 28.8798C85.3096 29.1694 86.0176 29.314 86.7375 29.314C87.9267 29.314 88.9906 29.0246 89.9295 28.4456C90.8684 27.8667 91.5959 27.0686 92.1124 26.0516C92.6288 25.0266 92.8869 23.8648 92.8869 22.566C92.8869 21.2672 92.6209 20.1054 92.0889 19.0805C91.5569 18.0556 90.8176 17.2615 89.8708 16.6982C88.9242 16.127 87.8484 15.8454 86.6435 15.8532C85.8768 15.8532 85.1414 16.0018 84.4373 16.2991C83.733 16.5964 83.1463 17.0189 82.6768 17.5666C82.6406 17.6083 82.6054 17.6504 82.5712 17.6929V10.6895H79.3556V29.0677H82.5478L82.5413 27.3508C82.624 27.452 82.7121 27.5509 82.806 27.6475C83.3145 28.1718 83.917 28.5826 84.6132 28.8798ZM87.8992 25.9107C87.3751 26.2314 86.7765 26.3919 86.1037 26.3919C85.4387 26.3919 84.8284 26.2276 84.2729 25.899C83.7174 25.5625 83.2754 25.1049 82.9468 24.5259C82.626 23.947 82.4657 23.2898 82.4657 22.5543C82.4578 21.8188 82.6143 21.1616 82.935 20.5827C83.2636 19.9959 83.7057 19.5421 84.2612 19.2213C84.8167 18.8927 85.4308 18.7324 86.1037 18.7402C86.7765 18.7324 87.3751 18.8888 87.8992 19.2096C88.4313 19.5226 88.8381 19.9724 89.1198 20.5592C89.4092 21.1382 89.554 21.8033 89.554 22.5543C89.554 23.3054 89.4092 23.9704 89.1198 24.5494C88.8381 25.1283 88.4313 25.5821 87.8992 25.9107ZM42.1799 11.7926H45.8415L49.1169 23.7545L52.6013 11.7926H55.6525L59.4315 23.5144L62.5766 11.7926H65.933L60.9805 29.0676H57.8236L53.9811 17.6164L50.4536 29.0676H47.2614L42.1799 11.7926ZM71.3402 29.3728C70.0648 29.3805 68.9148 29.0988 67.8898 28.5278C66.8728 27.9488 66.0708 27.1468 65.484 26.122C64.9051 25.097 64.6155 23.9274 64.6155 22.613C64.6155 21.3377 64.9129 20.1837 65.5075 19.1509C66.102 18.1182 66.908 17.3123 67.925 16.7334C68.9421 16.1544 70.0765 15.8649 71.3284 15.8649C72.7367 15.8649 73.969 16.1779 75.0252 16.8038C76.0892 17.4297 76.8833 18.3177 77.4075 19.4678C77.9395 20.6101 78.1312 21.9206 77.9826 23.3992H67.93C67.9581 23.9883 68.1051 24.5244 68.371 25.007C68.6683 25.539 69.083 25.9537 69.6149 26.251C70.1469 26.5483 70.7416 26.6969 71.3988 26.6969C71.8995 26.6892 72.365 26.6031 72.7953 26.4388C73.2256 26.2667 73.5894 26.0359 73.8868 25.7465C74.1919 25.4569 74.407 25.1283 74.5322 24.7607H77.8887C77.6853 25.6603 77.2784 26.4623 76.6682 27.1664C76.0579 27.8627 75.2911 28.4065 74.3679 28.7977C73.4447 29.1888 72.4354 29.3805 71.3402 29.3728ZM68.3828 20.1719C68.1952 20.4989 68.0654 20.851 67.993 21.2282H74.6566C74.6082 20.7516 74.4612 20.3174 74.2153 19.9255C73.9338 19.4639 73.5504 19.1079 73.0653 18.8575C72.5802 18.5994 72.0326 18.4703 71.4223 18.4703C70.7729 18.4703 70.1823 18.6189 69.6502 18.9162C69.1182 19.2135 68.6956 19.6321 68.3828 20.1719ZM95.2457 16.1348C95.2457 15.0864 95.4845 14.1554 95.9617 13.3417C96.439 12.5202 97.1079 11.8826 97.9685 11.4288C98.8369 10.9672 99.8501 10.7286 101.008 10.7129V13.5647C100.468 13.5725 100.007 13.686 99.6232 13.9051C99.2477 14.1163 98.9582 14.4253 98.7548 14.8322C98.5674 15.2067 98.4664 15.6409 98.4516 16.1348H100.938V18.8458H98.4496V29.0676H95.2457V18.8458H93.1803V16.1348H95.2457ZM113.624 29.3493C112.317 29.3493 111.148 29.0637 110.115 28.4926C109.09 27.9136 108.284 27.1155 107.697 26.0985C107.118 25.0735 106.829 23.9118 106.829 22.613C106.829 21.3064 107.118 20.1406 107.697 19.1157C108.284 18.083 109.09 17.281 110.115 16.7099C111.148 16.1388 112.317 15.8532 113.624 15.8532C114.938 15.8532 116.112 16.1388 117.145 16.7099C118.185 17.281 118.995 18.0791 119.574 19.104C120.153 20.1289 120.446 21.2986 120.454 22.613C120.446 23.9118 120.153 25.0735 119.574 26.0985C119.003 27.1155 118.197 27.9136 117.156 28.4926C116.116 29.0637 114.938 29.3493 113.624 29.3493ZM113.624 26.4037C114.312 26.4037 114.923 26.2472 115.455 25.9342C115.987 25.6134 116.397 25.1674 116.687 24.5963C116.976 24.0173 117.121 23.3563 117.121 22.613C117.121 21.8619 116.976 21.1969 116.687 20.6179C116.397 20.0389 115.987 19.593 115.455 19.28C114.923 18.9592 114.312 18.7989 113.624 18.7989C112.943 18.7989 112.337 18.9592 111.805 19.28C111.281 19.593 110.874 20.0389 110.584 20.6179C110.295 21.1969 110.154 21.8619 110.162 22.613C110.162 23.3563 110.306 24.0173 110.596 24.5963C110.893 25.1674 111.3 25.6134 111.817 25.9342C112.341 26.2472 112.943 26.4037 113.624 26.4037ZM123.916 16.1348H120.348L124.209 29.0676H127.331L129.871 20.8075L132.613 29.0676H135.687L139.56 16.1348H136.333L134.136 24.1847L131.709 16.1348H128.587L126.171 24.3621L123.916 16.1348Z" fill="#18181B"/>
<path fill-rule="evenodd" clip-rule="evenodd" d="M102.275 29.0676H105.479V10.6777H102.275V29.0676ZM84.6132 28.8798C85.3096 29.1694 86.0176 29.314 86.7375 29.314C87.9267 29.314 88.9906 29.0246 89.9295 28.4456C90.8684 27.8667 91.5959 27.0686 92.1124 26.0516C92.6288 25.0266 92.8869 23.8648 92.8869 22.566C92.8869 21.2672 92.6209 20.1054 92.0889 19.0805C91.5569 18.0556 90.8176 17.2615 89.8708 16.6982C88.9242 16.127 87.8484 15.8454 86.6435 15.8532C85.8768 15.8532 85.1414 16.0018 84.4373 16.2991C83.733 16.5964 83.1463 17.0189 82.6768 17.5666C82.6406 17.6083 82.6054 17.6504 82.5712 17.6929V10.6895H79.3556V29.0677H82.5478L82.5413 27.3508C82.624 27.452 82.7121 27.5509 82.806 27.6475C83.3145 28.1718 83.917 28.5826 84.6132 28.8798ZM87.8992 25.9107C87.3751 26.2314 86.7765 26.3919 86.1037 26.3919C85.4387 26.3919 84.8284 26.2276 84.2729 25.899C83.7174 25.5625 83.2754 25.1049 82.9468 24.5259C82.626 23.947 82.4657 23.2898 82.4657 22.5543C82.4578 21.8188 82.6143 21.1616 82.935 20.5827C83.2636 19.9959 83.7057 19.5421 84.2612 19.2213C84.8167 18.8927 85.4308 18.7324 86.1037 18.7402C86.7765 18.7324 87.3751 18.8888 87.8992 19.2096C88.4313 19.5226 88.8381 19.9724 89.1198 20.5592C89.4092 21.1382 89.554 21.8033 89.554 22.5543C89.554 23.3054 89.4092 23.9704 89.1198 24.5494C88.8381 25.1283 88.4313 25.5821 87.8992 25.9107ZM42.1799 11.7926H45.8415L49.1169 23.7545L52.6013 11.7926H55.6525L59.4315 23.5144L62.5766 11.7926H65.933L60.9805 29.0676H57.8236L53.9811 17.6164L50.4536 29.0676H47.2614L42.1799 11.7926ZM71.3402 29.3728C70.0648 29.3805 68.9148 29.0988 67.8898 28.5278C66.8728 27.9488 66.0708 27.1468 65.484 26.122C64.9051 25.097 64.6155 23.9274 64.6155 22.613C64.6155 21.3377 64.9129 20.1837 65.5075 19.1509C66.102 18.1182 66.908 17.3123 67.925 16.7334C68.9421 16.1544 70.0765 15.8649 71.3284 15.8649C72.7367 15.8649 73.969 16.1779 75.0252 16.8038C76.0892 17.4297 76.8833 18.3177 77.4075 19.4678C77.9395 20.6101 78.1312 21.9206 77.9826 23.3992H67.93C67.9581 23.9883 68.1051 24.5244 68.371 25.007C68.6683 25.539 69.083 25.9537 69.6149 26.251C70.1469 26.5483 70.7416 26.6969 71.3988 26.6969C71.8995 26.6892 72.365 26.6031 72.7953 26.4388C73.2256 26.2667 73.5894 26.0359 73.8868 25.7465C74.1919 25.4569 74.407 25.1283 74.5322 24.7607H77.8887C77.6853 25.6603 77.2784 26.4623 76.6682 27.1664C76.0579 27.8627 75.2911 28.4065 74.3679 28.7977C73.4447 29.1888 72.4354 29.3805 71.3402 29.3728ZM68.3828 20.1719C68.1952 20.4989 68.0654 20.851 67.993 21.2282H74.6566C74.6082 20.7516 74.4612 20.3174 74.2153 19.9255C73.9338 19.4639 73.5504 19.1079 73.0653 18.8575C72.5802 18.5994 72.0326 18.4703 71.4223 18.4703C70.7729 18.4703 70.1823 18.6189 69.6502 18.9162C69.1182 19.2135 68.6956 19.6321 68.3828 20.1719ZM95.2457 16.1348C95.2457 15.0864 95.4845 14.1554 95.9617 13.3417C96.439 12.5202 97.1079 11.8826 97.9685 11.4288C98.8369 10.9672 99.8501 10.7286 101.008 10.7129V13.5647C100.468 13.5725 100.007 13.686 99.6232 13.9051C99.2477 14.1163 98.9582 14.4253 98.7548 14.8322C98.5674 15.2067 98.4664 15.6409 98.4516 16.1348H100.938V18.8458H98.4496V29.0676H95.2457V18.8458H93.1803V16.1348H95.2457ZM113.624 29.3493C112.317 29.3493 111.148 29.0637 110.115 28.4926C109.09 27.9136 108.284 27.1155 107.697 26.0985C107.118 25.0735 106.829 23.9118 106.829 22.613C106.829 21.3064 107.118 20.1406 107.697 19.1157C108.284 18.083 109.09 17.281 110.115 16.7099C111.148 16.1388 112.317 15.8532 113.624 15.8532C114.938 15.8532 116.112 16.1388 117.145 16.7099C118.185 17.281 118.995 18.0791 119.574 19.104C120.153 20.1289 120.446 21.2986 120.454 22.613C120.446 23.9118 120.153 25.0735 119.574 26.0985C119.003 27.1155 118.197 27.9136 117.156 28.4926C116.116 29.0637 114.938 29.3493 113.624 29.3493ZM113.624 26.4037C114.312 26.4037 114.923 26.2472 115.455 25.9342C115.987 25.6134 116.397 25.1674 116.687 24.5963C116.976 24.0173 117.121 23.3563 117.121 22.613C117.121 21.8619 116.976 21.1969 116.687 20.6179C116.397 20.0389 115.987 19.593 115.455 19.28C114.923 18.9592 114.312 18.7989 113.624 18.7989C112.943 18.7989 112.337 18.9592 111.805 19.28C111.281 19.593 110.874 20.0389 110.584 20.6179C110.295 21.1969 110.154 21.8619 110.162 22.613C110.162 23.3563 110.306 24.0173 110.596 24.5963C110.893 25.1674 111.3 25.6134 111.817 25.9342C112.341 26.2472 112.943 26.4037 113.624 26.4037ZM123.916 16.1348H120.348L124.209 29.0676H127.331L129.871 20.8075L132.613 29.0676H135.687L139.56 16.1348H136.333L134.136 24.1847L131.709 16.1348H128.587L126.171 24.3621L123.916 16.1348Z" fill="#18181B"/>
<path d="M102.275 29.0676H105.479V10.6777H102.275V29.0676ZM84.6132 28.8798C85.3096 29.1694 86.0176 29.314 86.7375 29.314C87.9267 29.314 88.9906 29.0246 89.9295 28.4456C90.8684 27.8667 91.5959 27.0686 92.1124 26.0516C92.6288 25.0266 92.8869 23.8648 92.8869 22.566C92.8869 21.2672 92.6209 20.1054 92.0889 19.0805C91.5569 18.0556 90.8176 17.2615 89.8708 16.6982C88.9242 16.127 87.8484 15.8454 86.6435 15.8532C85.8768 15.8532 85.1414 16.0018 84.4373 16.2991C83.733 16.5964 83.1463 17.0189 82.6768 17.5666C82.6406 17.6083 82.6054 17.6504 82.5712 17.6929V10.6895H79.3556V29.0677H82.5478L82.5413 27.3508C82.624 27.452 82.7121 27.5509 82.806 27.6475C83.3145 28.1718 83.917 28.5826 84.6132 28.8798ZM87.8992 25.9107C87.3751 26.2314 86.7765 26.3919 86.1037 26.3919C85.4387 26.3919 84.8284 26.2276 84.2729 25.899C83.7174 25.5625 83.2754 25.1049 82.9468 24.5259C82.626 23.947 82.4657 23.2898 82.4657 22.5543C82.4578 21.8188 82.6143 21.1616 82.935 20.5827C83.2636 19.9959 83.7057 19.5421 84.2612 19.2213C84.8167 18.8927 85.4308 18.7324 86.1037 18.7402C86.7765 18.7324 87.3751 18.8888 87.8992 19.2096C88.4313 19.5226 88.8381 19.9724 89.1198 20.5592C89.4092 21.1382 89.554 21.8033 89.554 22.5543C89.554 23.3054 89.4092 23.9704 89.1198 24.5494C88.8381 25.1283 88.4313 25.5821 87.8992 25.9107ZM42.1799 11.7926H45.8415L49.1169 23.7545L52.6013 11.7926H55.6525L59.4315 23.5144L62.5766 11.7926H65.933L60.9805 29.0676H57.8236L53.9811 17.6164L50.4536 29.0676H47.2614L42.1799 11.7926ZM71.3402 29.3728C70.0648 29.3805 68.9148 29.0988 67.8898 28.5278C66.8728 27.9488 66.0708 27.1468 65.484 26.122C64.9051 25.097 64.6155 23.9274 64.6155 22.613C64.6155 21.3377 64.9129 20.1837 65.5075 19.1509C66.102 18.1182 66.908 17.3123 67.925 16.7334C68.9421 16.1544 70.0765 15.8649 71.3284 15.8649C72.7367 15.8649 73.969 16.1779 75.0252 16.8038C76.0892 17.4297 76.8833 18.3177 77.4075 19.4678C77.9395 20.6101 78.1312 21.9206 77.9826 23.3992H67.93C67.9581 23.9883 68.1051 24.5244 68.371 25.007C68.6683 25.539 69.083 25.9537 69.6149 26.251C70.1469 26.5483 70.7416 26.6969 71.3988 26.6969C71.8995 26.6892 72.365 26.6031 72.7953 26.4388C73.2256 26.2667 73.5894 26.0359 73.8868 25.7465C74.1919 25.4569 74.407 25.1283 74.5322 24.7607H77.8887C77.6853 25.6603 77.2784 26.4623 76.6682 27.1664C76.0579 27.8627 75.2911 28.4065 74.3679 28.7977C73.4447 29.1888 72.4354 29.3805 71.3402 29.3728ZM68.3828 20.1719C68.1952 20.4989 68.0654 20.851 67.993 21.2282H74.6566C74.6082 20.7516 74.4612 20.3174 74.2153 19.9255C73.9338 19.4639 73.5504 19.1079 73.0653 18.8575C72.5802 18.5994 72.0326 18.4703 71.4223 18.4703C70.7729 18.4703 70.1823 18.6189 69.6502 18.9162C69.1182 19.2135 68.6956 19.6321 68.3828 20.1719ZM95.2457 16.1348C95.2457 15.0864 95.4845 14.1554 95.9617 13.3417C96.439 12.5202 97.1079 11.8826 97.9685 11.4288C98.8369 10.9672 99.8501 10.7286 101.008 10.7129V13.5647C100.468 13.5725 100.007 13.686 99.6232 13.9051C99.2477 14.1163 98.9582 14.4253 98.7548 14.8322C98.5674 15.2067 98.4664 15.6409 98.4516 16.1348H100.938V18.8458H98.4496V29.0676H95.2457V18.8458H93.1803V16.1348H95.2457ZM113.624 29.3493C112.317 29.3493 111.148 29.0637 110.115 28.4926C109.09 27.9136 108.284 27.1155 107.697 26.0985C107.118 25.0735 106.829 23.9118 106.829 22.613C106.829 21.3064 107.118 20.1406 107.697 19.1157C108.284 18.083 109.09 17.281 110.115 16.7099C111.148 16.1388 112.317 15.8532 113.624 15.8532C114.938 15.8532 116.112 16.1388 117.145 16.7099C118.185 17.281 118.995 18.0791 119.574 19.104C120.153 20.1289 120.446 21.2986 120.454 22.613C120.446 23.9118 120.153 25.0735 119.574 26.0985C119.003 27.1155 118.197 27.9136 117.156 28.4926C116.116 29.0637 114.938 29.3493 113.624 29.3493ZM113.624 26.4037C114.312 26.4037 114.923 26.2472 115.455 25.9342C115.987 25.6134 116.397 25.1674 116.687 24.5963C116.976 24.0173 117.121 23.3563 117.121 22.613C117.121 21.8619 116.976 21.1969 116.687 20.6179C116.397 20.0389 115.987 19.593 115.455 19.28C114.923 18.9592 114.312 18.7989 113.624 18.7989C112.943 18.7989 112.337 18.9592 111.805 19.28C111.281 19.593 110.874 20.0389 110.584 20.6179C110.295 21.1969 110.154 21.8619 110.162 22.613C110.162 23.3563 110.306 24.0173 110.596 24.5963C110.893 25.1674 111.3 25.6134 111.817 25.9342C112.341 26.2472 112.943 26.4037 113.624 26.4037ZM123.916 16.1348H120.348L124.209 29.0676H127.331L129.871 20.8075L132.613 29.0676H135.687L139.56 16.1348H136.333L134.136 24.1847L131.709 16.1348H128.587L126.171 24.3621L123.916 16.1348Z" fill="#18181B"/>
<path fill-rule="evenodd" clip-rule="evenodd" d="M102.275 29.0676H105.479V10.6777H102.275V29.0676ZM84.6132 28.8798C85.3096 29.1694 86.0176 29.314 86.7375 29.314C87.9267 29.314 88.9906 29.0246 89.9295 28.4456C90.8684 27.8667 91.5959 27.0686 92.1124 26.0516C92.6288 25.0266 92.8869 23.8648 92.8869 22.566C92.8869 21.2672 92.6209 20.1054 92.0889 19.0805C91.5569 18.0556 90.8176 17.2615 89.8708 16.6982C88.9242 16.127 87.8484 15.8454 86.6435 15.8532C85.8768 15.8532 85.1414 16.0018 84.4373 16.2991C83.733 16.5964 83.1463 17.0189 82.6768 17.5666C82.6406 17.6083 82.6054 17.6504 82.5712 17.6929V10.6895H79.3556V29.0677H82.5478L82.5413 27.3508C82.624 27.452 82.7121 27.5509 82.806 27.6475C83.3145 28.1718 83.917 28.5826 84.6132 28.8798ZM87.8992 25.9107C87.3751 26.2314 86.7765 26.3919 86.1037 26.3919C85.4387 26.3919 84.8284 26.2276 84.2729 25.899C83.7174 25.5625 83.2754 25.1049 82.9468 24.5259C82.626 23.947 82.4657 23.2898 82.4657 22.5543C82.4578 21.8188 82.6143 21.1616 82.935 20.5827C83.2636 19.9959 83.7057 19.5421 84.2612 19.2213C84.8167 18.8927 85.4308 18.7324 86.1037 18.7402C86.7765 18.7324 87.3751 18.8888 87.8992 19.2096C88.4313 19.5226 88.8381 19.9724 89.1198 20.5592C89.4092 21.1382 89.554 21.8033 89.554 22.5543C89.554 23.3054 89.4092 23.9704 89.1198 24.5494C88.8381 25.1283 88.4313 25.5821 87.8992 25.9107ZM42.1799 11.7926H45.8415L49.1169 23.7545L52.6013 11.7926H55.6525L59.4315 23.5144L62.5766 11.7926H65.933L60.9805 29.0676H57.8236L53.9811 17.6164L50.4536 29.0676H47.2614L42.1799 11.7926ZM71.3402 29.3728C70.0648 29.3805 68.9148 29.0988 67.8898 28.5278C66.8728 27.9488 66.0708 27.1468 65.484 26.122C64.9051 25.097 64.6155 23.9274 64.6155 22.613C64.6155 21.3377 64.9129 20.1837 65.5075 19.1509C66.102 18.1182 66.908 17.3123 67.925 16.7334C68.9421 16.1544 70.0765 15.8649 71.3284 15.8649C72.7367 15.8649 73.969 16.1779 75.0252 16.8038C76.0892 17.4297 76.8833 18.3177 77.4075 19.4678C77.9395 20.6101 78.1312 21.9206 77.9826 23.3992H67.93C67.9581 23.9883 68.1051 24.5244 68.371 25.007C68.6683 25.539 69.083 25.9537 69.6149 26.251C70.1469 26.5483 70.7416 26.6969 71.3988 26.6969C71.8995 26.6892 72.365 26.6031 72.7953 26.4388C73.2256 26.2667 73.5894 26.0359 73.8868 25.7465C74.1919 25.4569 74.407 25.1283 74.5322 24.7607H77.8887C77.6853 25.6603 77.2784 26.4623 76.6682 27.1664C76.0579 27.8627 75.2911 28.4065 74.3679 28.7977C73.4447 29.1888 72.4354 29.3805 71.3402 29.3728ZM68.3828 20.1719C68.1952 20.4989 68.0654 20.851 67.993 21.2282H74.6566C74.6082 20.7516 74.4612 20.3174 74.2153 19.9255C73.9338 19.4639 73.5504 19.1079 73.0653 18.8575C72.5802 18.5994 72.0326 18.4703 71.4223 18.4703C70.7729 18.4703 70.1823 18.6189 69.6502 18.9162C69.1182 19.2135 68.6956 19.6321 68.3828 20.1719ZM95.2457 16.1348C95.2457 15.0864 95.4845 14.1554 95.9617 13.3417C96.439 12.5202 97.1079 11.8826 97.9685 11.4288C98.8369 10.9672 99.8501 10.7286 101.008 10.7129V13.5647C100.468 13.5725 100.007 13.686 99.6232 13.9051C99.2477 14.1163 98.9582 14.4253 98.7548 14.8322C98.5674 15.2067 98.4664 15.6409 98.4516 16.1348H100.938V18.8458H98.4496V29.0676H95.2457V18.8458H93.1803V16.1348H95.2457ZM113.624 29.3493C112.317 29.3493 111.148 29.0637 110.115 28.4926C109.09 27.9136 108.284 27.1155 107.697 26.0985C107.118 25.0735 106.829 23.9118 106.829 22.613C106.829 21.3064 107.118 20.1406 107.697 19.1157C108.284 18.083 109.09 17.281 110.115 16.7099C111.148 16.1388 112.317 15.8532 113.624 15.8532C114.938 15.8532 116.112 16.1388 117.145 16.7099C118.185 17.281 118.995 18.0791 119.574 19.104C120.153 20.1289 120.446 21.2986 120.454 22.613C120.446 23.9118 120.153 25.0735 119.574 26.0985C119.003 27.1155 118.197 27.9136 117.156 28.4926C116.116 29.0637 114.938 29.3493 113.624 29.3493ZM113.624 26.4037C114.312 26.4037 114.923 26.2472 115.455 25.9342C115.987 25.6134 116.397 25.1674 116.687 24.5963C116.976 24.0173 117.121 23.3563 117.121 22.613C117.121 21.8619 116.976 21.1969 116.687 20.6179C116.397 20.0389 115.987 19.593 115.455 19.28C114.923 18.9592 114.312 18.7989 113.624 18.7989C112.943 18.7989 112.337 18.9592 111.805 19.28C111.281 19.593 110.874 20.0389 110.584 20.6179C110.295 21.1969 110.154 21.8619 110.162 22.613C110.162 23.3563 110.306 24.0173 110.596 24.5963C110.893 25.1674 111.3 25.6134 111.817 25.9342C112.341 26.2472 112.943 26.4037 113.624 26.4037ZM123.916 16.1348H120.348L124.209 29.0676H127.331L129.871 20.8075L132.613 29.0676H135.687L139.56 16.1348H136.333L134.136 24.1847L131.709 16.1348H128.587L126.171 24.3621L123.916 16.1348Z" fill="#18181B"/>
<path d="M102.275 29.0676H105.479V10.6777H102.275V29.0676ZM84.6132 28.8798C85.3096 29.1694 86.0176 29.314 86.7375 29.314C87.9267 29.314 88.9906 29.0246 89.9295 28.4456C90.8684 27.8667 91.5959 27.0686 92.1124 26.0516C92.6288 25.0266 92.8869 23.8648 92.8869 22.566C92.8869 21.2672 92.6209 20.1054 92.0889 19.0805C91.5569 18.0556 90.8176 17.2615 89.8708 16.6982C88.9242 16.127 87.8484 15.8454 86.6435 15.8532C85.8768 15.8532 85.1414 16.0018 84.4373 16.2991C83.733 16.5964 83.1463 17.0189 82.6768 17.5666C82.6406 17.6083 82.6054 17.6504 82.5712 17.6929V10.6895H79.3556V29.0677H82.5478L82.5413 27.3508C82.624 27.452 82.7121 27.5509 82.806 27.6475C83.3145 28.1718 83.917 28.5826 84.6132 28.8798ZM87.8992 25.9107C87.3751 26.2314 86.7765 26.3919 86.1037 26.3919C85.4387 26.3919 84.8284 26.2276 84.2729 25.899C83.7174 25.5625 83.2754 25.1049 82.9468 24.5259C82.626 23.947 82.4657 23.2898 82.4657 22.5543C82.4578 21.8188 82.6143 21.1616 82.935 20.5827C83.2636 19.9959 83.7057 19.5421 84.2612 19.2213C84.8167 18.8927 85.4308 18.7324 86.1037 18.7402C86.7765 18.7324 87.3751 18.8888 87.8992 19.2096C88.4313 19.5226 88.8381 19.9724 89.1198 20.5592C89.4092 21.1382 89.554 21.8033 89.554 22.5543C89.554 23.3054 89.4092 23.9704 89.1198 24.5494C88.8381 25.1283 88.4313 25.5821 87.8992 25.9107ZM42.1799 11.7926H45.8415L49.1169 23.7545L52.6013 11.7926H55.6525L59.4315 23.5144L62.5766 11.7926H65.933L60.9805 29.0676H57.8236L53.9811 17.6164L50.4536 29.0676H47.2614L42.1799 11.7926ZM71.3402 29.3728C70.0648 29.3805 68.9148 29.0988 67.8898 28.5278C66.8728 27.9488 66.0708 27.1468 65.484 26.122C64.9051 25.097 64.6155 23.9274 64.6155 22.613C64.6155 21.3377 64.9129 20.1837 65.5075 19.1509C66.102 18.1182 66.908 17.3123 67.925 16.7334C68.9421 16.1544 70.0765 15.8649 71.3284 15.8649C72.7367 15.8649 73.969 16.1779 75.0252 16.8038C76.0892 17.4297 76.8833 18.3177 77.4075 19.4678C77.9395 20.6101 78.1312 21.9206 77.9826 23.3992H67.93C67.9581 23.9883 68.1051 24.5244 68.371 25.007C68.6683 25.539 69.083 25.9537 69.6149 26.251C70.1469 26.5483 70.7416 26.6969 71.3988 26.6969C71.8995 26.6892 72.365 26.6031 72.7953 26.4388C73.2256 26.2667 73.5894 26.0359 73.8868 25.7465C74.1919 25.4569 74.407 25.1283 74.5322 24.7607H77.8887C77.6853 25.6603 77.2784 26.4623 76.6682 27.1664C76.0579 27.8627 75.2911 28.4065 74.3679 28.7977C73.4447 29.1888 72.4354 29.3805 71.3402 29.3728ZM68.3828 20.1719C68.1952 20.4989 68.0654 20.851 67.993 21.2282H74.6566C74.6082 20.7516 74.4612 20.3174 74.2153 19.9255C73.9338 19.4639 73.5504 19.1079 73.0653 18.8575C72.5802 18.5994 72.0326 18.4703 71.4223 18.4703C70.7729 18.4703 70.1823 18.6189 69.6502 18.9162C69.1182 19.2135 68.6956 19.6321 68.3828 20.1719ZM95.2457 16.1348C95.2457 15.0864 95.4845 14.1554 95.9617 13.3417C96.439 12.5202 97.1079 11.8826 97.9685 11.4288C98.8369 10.9672 99.8501 10.7286 101.008 10.7129V13.5647C100.468 13.5725 100.007 13.686 99.6232 13.9051C99.2477 14.1163 98.9582 14.4253 98.7548 14.8322C98.5674 15.2067 98.4664 15.6409 98.4516 16.1348H100.938V18.8458H98.4496V29.0676H95.2457V18.8458H93.1803V16.1348H95.2457ZM113.624 29.3493C112.317 29.3493 111.148 29.0637 110.115 28.4926C109.09 27.9136 108.284 27.1155 107.697 26.0985C107.118 25.0735 106.829 23.9118 106.829 22.613C106.829 21.3064 107.118 20.1406 107.697 19.1157C108.284 18.083 109.09 17.281 110.115 16.7099C111.148 16.1388 112.317 15.8532 113.624 15.8532C114.938 15.8532 116.112 16.1388 117.145 16.7099C118.185 17.281 118.995 18.0791 119.574 19.104C120.153 20.1289 120.446 21.2986 120.454 22.613C120.446 23.9118 120.153 25.0735 119.574 26.0985C119.003 27.1155 118.197 27.9136 117.156 28.4926C116.116 29.0637 114.938 29.3493 113.624 29.3493ZM113.624 26.4037C114.312 26.4037 114.923 26.2472 115.455 25.9342C115.987 25.6134 116.397 25.1674 116.687 24.5963C116.976 24.0173 117.121 23.3563 117.121 22.613C117.121 21.8619 116.976 21.1969 116.687 20.6179C116.397 20.0389 115.987 19.593 115.455 19.28C114.923 18.9592 114.312 18.7989 113.624 18.7989C112.943 18.7989 112.337 18.9592 111.805 19.28C111.281 19.593 110.874 20.0389 110.584 20.6179C110.295 21.1969 110.154 21.8619 110.162 22.613C110.162 23.3563 110.306 24.0173 110.596 24.5963C110.893 25.1674 111.3 25.6134 111.817 25.9342C112.341 26.2472 112.943 26.4037 113.624 26.4037ZM123.916 16.1348H120.348L124.209 29.0676H127.331L129.871 20.8075L132.613 29.0676H135.687L139.56 16.1348H136.333L134.136 24.1847L131.709 16.1348H128.587L126.171 24.3621L123.916 16.1348Z" fill="#18181B"/>
<path fill-rule="evenodd" clip-rule="evenodd" d="M102.275 29.0676H105.479V10.6777H102.275V29.0676ZM84.6132 28.8798C85.3096 29.1694 86.0176 29.314 86.7375 29.314C87.9267 29.314 88.9906 29.0246 89.9295 28.4456C90.8684 27.8667 91.5959 27.0686 92.1124 26.0516C92.6288 25.0266 92.8869 23.8648 92.8869 22.566C92.8869 21.2672 92.6209 20.1054 92.0889 19.0805C91.5569 18.0556 90.8176 17.2615 89.8708 16.6982C88.9242 16.127 87.8484 15.8454 86.6435 15.8532C85.8768 15.8532 85.1414 16.0018 84.4373 16.2991C83.733 16.5964 83.1463 17.0189 82.6768 17.5666C82.6406 17.6083 82.6054 17.6504 82.5712 17.6929V10.6895H79.3556V29.0677H82.5478L82.5413 27.3508C82.624 27.452 82.7121 27.5509 82.806 27.6475C83.3145 28.1718 83.917 28.5826 84.6132 28.8798ZM87.8992 25.9107C87.3751 26.2314 86.7765 26.3919 86.1037 26.3919C85.4387 26.3919 84.8284 26.2276 84.2729 25.899C83.7174 25.5625 83.2754 25.1049 82.9468 24.5259C82.626 23.947 82.4657 23.2898 82.4657 22.5543C82.4578 21.8188 82.6143 21.1616 82.935 20.5827C83.2636 19.9959 83.7057 19.5421 84.2612 19.2213C84.8167 18.8927 85.4308 18.7324 86.1037 18.7402C86.7765 18.7324 87.3751 18.8888 87.8992 19.2096C88.4313 19.5226 88.8381 19.9724 89.1198 20.5592C89.4092 21.1382 89.554 21.8033 89.554 22.5543C89.554 23.3054 89.4092 23.9704 89.1198 24.5494C88.8381 25.1283 88.4313 25.5821 87.8992 25.9107ZM42.1799 11.7926H45.8415L49.1169 23.7545L52.6013 11.7926H55.6525L59.4315 23.5144L62.5766 11.7926H65.933L60.9805 29.0676H57.8236L53.9811 17.6164L50.4536 29.0676H47.2614L42.1799 11.7926ZM71.3402 29.3728C70.0648 29.3805 68.9148 29.0988 67.8898 28.5278C66.8728 27.9488 66.0708 27.1468 65.484 26.122C64.9051 25.097 64.6155 23.9274 64.6155 22.613C64.6155 21.3377 64.9129 20.1837 65.5075 19.1509C66.102 18.1182 66.908 17.3123 67.925 16.7334C68.9421 16.1544 70.0765 15.8649 71.3284 15.8649C72.7367 15.8649 73.969 16.1779 75.0252 16.8038C76.0892 17.4297 76.8833 18.3177 77.4075 19.4678C77.9395 20.6101 78.1312 21.9206 77.9826 23.3992H67.93C67.9581 23.9883 68.1051 24.5244 68.371 25.007C68.6683 25.539 69.083 25.9537 69.6149 26.251C70.1469 26.5483 70.7416 26.6969 71.3988 26.6969C71.8995 26.6892 72.365 26.6031 72.7953 26.4388C73.2256 26.2667 73.5894 26.0359 73.8868 25.7465C74.1919 25.4569 74.407 25.1283 74.5322 24.7607H77.8887C77.6853 25.6603 77.2784 26.4623 76.6682 27.1664C76.0579 27.8627 75.2911 28.4065 74.3679 28.7977C73.4447 29.1888 72.4354 29.3805 71.3402 29.3728ZM68.3828 20.1719C68.1952 20.4989 68.0654 20.851 67.993 21.2282H74.6566C74.6082 20.7516 74.4612 20.3174 74.2153 19.9255C73.9338 19.4639 73.5504 19.1079 73.0653 18.8575C72.5802 18.5994 72.0326 18.4703 71.4223 18.4703C70.7729 18.4703 70.1823 18.6189 69.6502 18.9162C69.1182 19.2135 68.6956 19.6321 68.3828 20.1719ZM95.2457 16.1348C95.2457 15.0864 95.4845 14.1554 95.9617 13.3417C96.439 12.5202 97.1079 11.8826 97.9685 11.4288C98.8369 10.9672 99.8501 10.7286 101.008 10.7129V13.5647C100.468 13.5725 100.007 13.686 99.6232 13.9051C99.2477 14.1163 98.9582 14.4253 98.7548 14.8322C98.5674 15.2067 98.4664 15.6409 98.4516 16.1348H100.938V18.8458H98.4496V29.0676H95.2457V18.8458H93.1803V16.1348H95.2457ZM113.624 29.3493C112.317 29.3493 111.148 29.0637 110.115 28.4926C109.09 27.9136 108.284 27.1155 107.697 26.0985C107.118 25.0735 106.829 23.9118 106.829 22.613C106.829 21.3064 107.118 20.1406 107.697 19.1157C108.284 18.083 109.09 17.281 110.115 16.7099C111.148 16.1388 112.317 15.8532 113.624 15.8532C114.938 15.8532 116.112 16.1388 117.145 16.7099C118.185 17.281 118.995 18.0791 119.574 19.104C120.153 20.1289 120.446 21.2986 120.454 22.613C120.446 23.9118 120.153 25.0735 119.574 26.0985C119.003 27.1155 118.197 27.9136 117.156 28.4926C116.116 29.0637 114.938 29.3493 113.624 29.3493ZM113.624 26.4037C114.312 26.4037 114.923 26.2472 115.455 25.9342C115.987 25.6134 116.397 25.1674 116.687 24.5963C116.976 24.0173 117.121 23.3563 117.121 22.613C117.121 21.8619 116.976 21.1969 116.687 20.6179C116.397 20.0389 115.987 19.593 115.455 19.28C114.923 18.9592 114.312 18.7989 113.624 18.7989C112.943 18.7989 112.337 18.9592 111.805 19.28C111.281 19.593 110.874 20.0389 110.584 20.6179C110.295 21.1969 110.154 21.8619 110.162 22.613C110.162 23.3563 110.306 24.0173 110.596 24.5963C110.893 25.1674 111.3 25.6134 111.817 25.9342C112.341 26.2472 112.943 26.4037 113.624 26.4037ZM123.916 16.1348H120.348L124.209 29.0676H127.331L129.871 20.8075L132.613 29.0676H135.687L139.56 16.1348H136.333L134.136 24.1847L131.709 16.1348H128.587L126.171 24.3621L123.916 16.1348Z" fill="#18181B"/>
<path d="M102.275 29.0676H105.479V10.6777H102.275V29.0676ZM84.6132 28.8798C85.3096 29.1694 86.0176 29.314 86.7375 29.314C87.9267 29.314 88.9906 29.0246 89.9295 28.4456C90.8684 27.8667 91.5959 27.0686 92.1124 26.0516C92.6288 25.0266 92.8869 23.8648 92.8869 22.566C92.8869 21.2672 92.6209 20.1054 92.0889 19.0805C91.5569 18.0556 90.8176 17.2615 89.8708 16.6982C88.9242 16.127 87.8484 15.8454 86.6435 15.8532C85.8768 15.8532 85.1414 16.0018 84.4373 16.2991C83.733 16.5964 83.1463 17.0189 82.6768 17.5666C82.6406 17.6083 82.6054 17.6504 82.5712 17.6929V10.6895H79.3556V29.0677H82.5478L82.5413 27.3508C82.624 27.452 82.7121 27.5509 82.806 27.6475C83.3145 28.1718 83.917 28.5826 84.6132 28.8798ZM87.8992 25.9107C87.3751 26.2314 86.7765 26.3919 86.1037 26.3919C85.4387 26.3919 84.8284 26.2276 84.2729 25.899C83.7174 25.5625 83.2754 25.1049 82.9468 24.5259C82.626 23.947 82.4657 23.2898 82.4657 22.5543C82.4578 21.8188 82.6143 21.1616 82.935 20.5827C83.2636 19.9959 83.7057 19.5421 84.2612 19.2213C84.8167 18.8927 85.4308 18.7324 86.1037 18.7402C86.7765 18.7324 87.3751 18.8888 87.8992 19.2096C88.4313 19.5226 88.8381 19.9724 89.1198 20.5592C89.4092 21.1382 89.554 21.8033 89.554 22.5543C89.554 23.3054 89.4092 23.9704 89.1198 24.5494C88.8381 25.1283 88.4313 25.5821 87.8992 25.9107ZM42.1799 11.7926H45.8415L49.1169 23.7545L52.6013 11.7926H55.6525L59.4315 23.5144L62.5766 11.7926H65.933L60.9805 29.0676H57.8236L53.9811 17.6164L50.4536 29.0676H47.2614L42.1799 11.7926ZM71.3402 29.3728C70.0648 29.3805 68.9148 29.0988 67.8898 28.5278C66.8728 27.9488 66.0708 27.1468 65.484 26.122C64.9051 25.097 64.6155 23.9274 64.6155 22.613C64.6155 21.3377 64.9129 20.1837 65.5075 19.1509C66.102 18.1182 66.908 17.3123 67.925 16.7334C68.9421 16.1544 70.0765 15.8649 71.3284 15.8649C72.7367 15.8649 73.969 16.1779 75.0252 16.8038C76.0892 17.4297 76.8833 18.3177 77.4075 19.4678C77.9395 20.6101 78.1312 21.9206 77.9826 23.3992H67.93C67.9581 23.9883 68.1051 24.5244 68.371 25.007C68.6683 25.539 69.083 25.9537 69.6149 26.251C70.1469 26.5483 70.7416 26.6969 71.3988 26.6969C71.8995 26.6892 72.365 26.6031 72.7953 26.4388C73.2256 26.2667 73.5894 26.0359 73.8868 25.7465C74.1919 25.4569 74.407 25.1283 74.5322 24.7607H77.8887C77.6853 25.6603 77.2784 26.4623 76.6682 27.1664C76.0579 27.8627 75.2911 28.4065 74.3679 28.7977C73.4447 29.1888 72.4354 29.3805 71.3402 29.3728ZM68.3828 20.1719C68.1952 20.4989 68.0654 20.851 67.993 21.2282H74.6566C74.6082 20.7516 74.4612 20.3174 74.2153 19.9255C73.9338 19.4639 73.5504 19.1079 73.0653 18.8575C72.5802 18.5994 72.0326 18.4703 71.4223 18.4703C70.7729 18.4703 70.1823 18.6189 69.6502 18.9162C69.1182 19.2135 68.6956 19.6321 68.3828 20.1719ZM95.2457 16.1348C95.2457 15.0864 95.4845 14.1554 95.9617 13.3417C96.439 12.5202 97.1079 11.8826 97.9685 11.4288C98.8369 10.9672 99.8501 10.7286 101.008 10.7129V13.5647C100.468 13.5725 100.007 13.686 99.6232 13.9051C99.2477 14.1163 98.9582 14.4253 98.7548 14.8322C98.5674 15.2067 98.4664 15.6409 98.4516 16.1348H100.938V18.8458H98.4496V29.0676H95.2457V18.8458H93.1803V16.1348H95.2457ZM113.624 29.3493C112.317 29.3493 111.148 29.0637 110.115 28.4926C109.09 27.9136 108.284 27.1155 107.697 26.0985C107.118 25.0735 106.829 23.9118 106.829 22.613C106.829 21.3064 107.118 20.1406 107.697 19.1157C108.284 18.083 109.09 17.281 110.115 16.7099C111.148 16.1388 112.317 15.8532 113.624 15.8532C114.938 15.8532 116.112 16.1388 117.145 16.7099C118.185 17.281 118.995 18.0791 119.574 19.104C120.153 20.1289 120.446 21.2986 120.454 22.613C120.446 23.9118 120.153 25.0735 119.574 26.0985C119.003 27.1155 118.197 27.9136 117.156 28.4926C116.116 29.0637 114.938 29.3493 113.624 29.3493ZM113.624 26.4037C114.312 26.4037 114.923 26.2472 115.455 25.9342C115.987 25.6134 116.397 25.1674 116.687 24.5963C116.976 24.0173 117.121 23.3563 117.121 22.613C117.121 21.8619 116.976 21.1969 116.687 20.6179C116.397 20.0389 115.987 19.593 115.455 19.28C114.923 18.9592 114.312 18.7989 113.624 18.7989C112.943 18.7989 112.337 18.9592 111.805 19.28C111.281 19.593 110.874 20.0389 110.584 20.6179C110.295 21.1969 110.154 21.8619 110.162 22.613C110.162 23.3563 110.306 24.0173 110.596 24.5963C110.893 25.1674 111.3 25.6134 111.817 25.9342C112.341 26.2472 112.943 26.4037 113.624 26.4037ZM123.916 16.1348H120.348L124.209 29.0676H127.331L129.871 20.8075L132.613 29.0676H135.687L139.56 16.1348H136.333L134.136 24.1847L131.709 16.1348H128.587L126.171 24.3621L123.916 16.1348Z" fill="#18181B"/>
</g>
<defs>
<clipPath id="clip0_2_223">
<rect width="140" height="40" fill="white" transform="translate(0.333252)"/>
</clipPath>
</defs>
</svg>
