<svg width="102" height="40" viewBox="0 0 102 40" fill="none" xmlns="http://www.w3.org/2000/svg">
<g clip-path="url(#clip0_2_214)">
<path d="M32.2696 27.0227L33.493 24.1631C34.8326 25.1552 36.5798 25.6802 38.3274 25.6802C39.6089 25.6802 40.4243 25.1844 40.4243 24.4259C40.395 22.3249 32.7065 23.9589 32.648 18.6767C32.6188 15.9922 35.0072 13.9204 38.3859 13.9204C40.395 13.9204 42.405 14.4166 43.8318 15.5549L42.6886 18.4754C41.3758 17.6312 39.7543 17.0427 38.2109 17.0427C37.1625 17.0427 36.4632 17.5385 36.4632 18.1809C36.4925 20.2527 44.2399 19.1145 44.3272 24.1631C44.3272 26.9062 41.9969 28.8321 38.6766 28.8321C36.2306 28.8321 33.988 28.2486 32.2692 27.0227H32.2696ZM80.9846 23.1277C80.6758 23.6764 80.2266 24.1331 79.6831 24.4509C79.1395 24.7687 78.5212 24.9363 77.8916 24.9363C75.9292 24.9363 74.3387 23.3424 74.3387 21.3763C74.3387 19.4102 75.9292 17.8163 77.8916 17.8163C78.5212 17.8163 79.1395 17.9838 79.6831 18.3017C80.2266 18.6195 80.6758 19.0762 80.9846 19.6249L84.3859 17.7369C83.1119 15.46 80.6818 13.9204 77.8916 13.9204C73.7819 13.9204 70.4503 17.2582 70.4503 21.3763C70.4503 25.4939 73.7819 28.8321 77.8916 28.8321C80.6818 28.8321 83.1119 27.2925 84.3859 25.0157L80.9846 23.1277ZM46.5343 28.5402H50.7865V7.71387H46.5347L46.5343 28.5402ZM86.5333 7.71387V28.5402H90.7854V22.3006L95.8241 28.5402H101.259L94.8517 21.1278L100.793 14.2111H95.591L90.7854 19.9615V7.71387H86.5333ZM63.8867 14.212V15.9049C63.1878 14.7374 61.4694 13.9204 59.6637 13.9204C55.9358 13.9204 52.9944 17.2181 52.9944 21.3617C52.9944 25.5052 55.9358 28.8321 59.6637 28.8321C61.4694 28.8321 63.1878 28.0151 63.8867 26.8477V28.5402H68.1388V14.212H63.8867ZM63.8867 23.1565C63.2751 24.1778 61.9937 24.9359 60.5668 24.9359C58.6041 24.9359 57.0135 23.3424 57.0135 21.3763C57.0135 19.4102 58.6041 17.8163 60.5668 17.8163C61.9937 17.8163 63.2751 18.604 63.8867 19.6541V23.1565Z" fill="#18181B"/>
<path d="M9.81402 7.25293C8.43605 7.25293 7.31913 8.37235 7.31913 9.75284C7.3188 10.0808 7.38307 10.4056 7.50827 10.7087C7.63347 11.0119 7.81715 11.2874 8.04883 11.5195C8.2805 11.7516 8.55563 11.9359 8.8585 12.0617C9.16137 12.1875 9.48606 12.2524 9.81402 12.2527H12.3093V9.75284C12.3099 9.09045 12.0473 8.45496 11.5794 7.98615C11.1114 7.51734 10.4764 7.25359 9.81402 7.25293V7.25293ZM9.81402 13.9194H3.16055C1.78257 13.9194 0.665649 15.0388 0.665649 16.4197C0.665649 17.8002 1.78257 18.9196 3.16055 18.9196H9.81444C11.192 18.9196 12.3093 17.8002 12.3093 16.4197C12.3093 15.0388 11.192 13.9194 9.81402 13.9194Z" fill="#18181B"/>
<path d="M25.616 16.4197C25.616 15.0388 24.4986 13.9194 23.1207 13.9194C21.7427 13.9194 20.6258 15.0388 20.6258 16.4197V18.9196H23.1207C23.7831 18.9189 24.4181 18.6552 24.886 18.1864C25.354 17.7176 25.6165 17.0821 25.616 16.4197V16.4197ZM18.9625 16.4197V9.75284C18.9631 9.09045 18.7005 8.45496 18.2325 7.98615C17.7646 7.51734 17.1296 7.25359 16.4672 7.25293C15.0892 7.25293 13.9723 8.37235 13.9723 9.75284V16.4193C13.9723 17.8006 15.0892 18.92 16.4672 18.92C17.1296 18.9193 17.7646 18.6556 18.2325 18.1868C18.7005 17.718 18.9631 17.0825 18.9625 16.4201" fill="#18181B"/>
<path d="M16.4672 32.2526C17.1296 32.2519 17.7646 31.9882 18.2325 31.5194C18.7005 31.0506 18.9631 30.4151 18.9625 29.7527C18.9631 29.0903 18.7005 28.4548 18.2325 27.986C17.7646 27.5172 17.1296 27.2534 16.4672 27.2528H13.9723V29.7527C13.9723 31.1332 15.0892 32.2526 16.4672 32.2526ZM16.4672 25.5862H23.1211C24.4986 25.5862 25.616 24.4667 25.616 23.0858C25.6165 22.4235 25.354 21.788 24.886 21.3192C24.4181 20.8503 23.7831 20.5866 23.1207 20.5859H16.4672C15.0892 20.5859 13.9723 21.7054 13.9723 23.0858C13.972 23.4138 14.0362 23.7386 14.1614 24.0418C14.2866 24.3449 14.4703 24.6204 14.702 24.8525C14.9337 25.0847 15.2088 25.2689 15.5117 25.3947C15.8145 25.5205 16.1392 25.5854 16.4672 25.5858" fill="#18181B"/>
<path d="M0.665651 23.0858C0.665321 23.4138 0.729593 23.7386 0.854795 24.0418C0.979997 24.3449 1.16368 24.6204 1.39535 24.8525C1.62702 25.0847 1.90215 25.2689 2.20502 25.3947C2.5079 25.5205 2.83258 25.5854 3.16055 25.5858C3.82294 25.5851 4.45794 25.3214 4.92589 24.8525C5.39384 24.3837 5.65642 23.7482 5.65586 23.0858V20.5859H3.16055C1.78257 20.5859 0.665651 21.7054 0.665651 23.0858V23.0858ZM7.31913 23.0858V29.7523C7.31913 31.1332 8.43605 32.2526 9.81403 32.2526C10.4764 32.2519 11.1114 31.9882 11.5794 31.5194C12.0473 31.0506 12.3099 30.4151 12.3093 29.7527V23.0858C12.3097 22.7578 12.2454 22.433 12.1202 22.1298C11.9949 21.8267 11.8112 21.5512 11.5795 21.319C11.3478 21.0869 11.0726 20.9027 10.7697 20.7769C10.4668 20.6511 10.142 20.5862 9.81403 20.5859C8.43605 20.5859 7.31913 21.7054 7.31913 23.0858Z" fill="#18181B"/>
</g>
<defs>
<clipPath id="clip0_2_214">
<rect width="100.833" height="40" fill="white" transform="translate(0.666626)"/>
</clipPath>
</defs>
</svg>
