<svg width="24" height="25" viewBox="0 0 24 25" fill="none" xmlns="http://www.w3.org/2000/svg">
<path d="M21.9844 11.2229L17.7563 14.9129L19.0228 20.4067C19.0898 20.6939 19.0707 20.9945 18.9678 21.2709C18.865 21.5472 18.6829 21.7872 18.4444 21.9606C18.2059 22.1341 17.9215 22.2334 17.6269 22.2462C17.3323 22.2589 17.0404 22.1845 16.7878 22.0323L11.9963 19.1261L7.21501 22.0323C6.96242 22.1845 6.67056 22.2589 6.37592 22.2462C6.08128 22.2334 5.79694 22.1341 5.55844 21.9606C5.31994 21.7872 5.13787 21.5472 5.03499 21.2709C4.93211 20.9945 4.91299 20.6939 4.98001 20.4067L6.2447 14.9186L2.01563 11.2229C1.79195 11.03 1.63021 10.7754 1.55069 10.4909C1.47116 10.2064 1.4774 9.9048 1.56861 9.62385C1.65982 9.34291 1.83195 9.09515 2.06341 8.91164C2.29487 8.72813 2.57535 8.61705 2.8697 8.59231L8.44407 8.1095L10.62 2.9195C10.7336 2.64717 10.9253 2.41455 11.1709 2.25093C11.4164 2.08731 11.7049 2 12 2C12.2951 2 12.5836 2.08731 12.8291 2.25093C13.0747 2.41455 13.2664 2.64717 13.38 2.9195L15.5625 8.1095L21.135 8.59231C21.4294 8.61705 21.7098 8.72813 21.9413 8.91164C22.1728 9.09515 22.3449 9.34291 22.4361 9.62385C22.5273 9.9048 22.5335 10.2064 22.454 10.4909C22.3745 10.7754 22.2128 11.03 21.9891 11.2229H21.9844Z" fill="#6366F1"/>
</svg>
